<?xml version="1.0" encoding="UTF-8"?>
<svg id="Layer_1" xmlns="http://www.w3.org/2000/svg" version="1.1" viewBox="0 0 259.19 259.19">
  <!-- Generator: Adobe Illustrator 29.3.1, SVG Export Plug-In . SVG Version: 2.1.0 Build 151)  -->
  <defs>
    <style>
      .st0 {
        fill: #ed1a3b;
      }

      .st1 {
        fill: #005893;
      }
    </style>
  </defs>
  <path class="st1" d="M75.83,108.23c.03,10.32-6.4,16.35-17.6,16.37l-7.82.02.03,12.14-11.45.03-.11-43.86,19.27-.05c11.2-.03,17.66,5.59,17.68,15.35ZM64.94,108.64c-.01-4.32-2.71-6.63-7.34-6.61l-7.26.02.03,13.45,7.26-.02c4.63-.01,7.31-2.4,7.3-6.84Z"/>
  <path class="st1" d="M107.87,136.62l-6.41-12.12h-.25s-8.26.02-8.26.02l.03,12.14-11.45.03-.11-43.86,19.71-.05c11.64-.03,18.28,5.59,18.31,15.35.02,6.63-2.72,11.52-7.79,14.16l9.17,14.31-12.95.03ZM92.93,115.39l8.32-.02c4.63-.01,7.31-2.4,7.3-6.84s-2.71-6.63-7.34-6.61l-8.32.02.03,13.45Z"/>
  <path class="st1" d="M138.17,92.69l.11,43.86-11.45.03-.11-43.86,11.45-.03Z"/>
  <path class="st1" d="M156.75,92.64l19.96,26.35-.07-26.4,10.64-.03.11,43.86-10.01.02-19.96-26.23.07,26.28-10.7.03-.11-43.86,10.07-.03Z"/>
  <path class="st1" d="M229.95,92.99l-.04,8.8-13.12-.06.16,50.59c0,.24-.31.33-.44.14l-11.08-16.05-.07-34.73-12.99-.06.04-8.8,37.54.17Z"/>
  <path class="st0" d="M55.99,173.43l-6.81-10.21-3.34,3.78.02,6.46-6.82.02-.07-26.47,6.82-.02.03,11.1,9.77-11.12,7.9-.02-9.66,10.97,10.32,15.49-8.16.02Z"/>
  <path class="st0" d="M82.62,173.36l-3.82-7.32h-.15s-4.92.01-4.92.01l.02,7.32-6.82.02-.07-26.47,11.73-.03c6.93-.02,10.89,3.37,10.9,9.26,0,4-1.62,6.95-4.64,8.54l5.46,8.63-7.71.02ZM73.72,160.55h4.95c2.76-.02,4.35-1.46,4.35-4.14s-1.61-4-4.37-3.99h-4.95s.02,8.13.02,8.13Z"/>
  <path class="st0" d="M111.29,168.61l-11.29.03-1.81,4.69-7,.02,11.15-26.49,7-.02,11.02,26.44-7.26.02-1.8-4.68ZM109.26,163.33l-3.6-9.43-3.63,9.45,7.23-.02Z"/>
  <path class="st0" d="M134.34,152.43c-4.02.01-7.07,3.23-7.06,7.46.01,4.27,3.07,7.51,7.1,7.5,2.16,0,4.65-1.22,6.47-3.11l4,4.33c-2.79,2.99-6.95,4.93-10.83,4.93-7.86.02-13.72-5.78-13.74-13.56-.02-7.63,5.96-13.38,13.94-13.4,3.87,0,7.94,1.72,10.55,4.5l-3.94,4.8c-1.72-2.11-4.22-3.46-6.49-3.46Z"/>
  <path class="st0" d="M154.51,146.72l.03,10.8,10.54-.03-.03-10.8,6.82-.02.07,26.47-6.82.02-.03-10.16-10.54.03.03,10.16-6.82.02-.07-26.47,6.82-.02Z"/>
  <path class="st0" d="M197.05,146.61v5.7s-7.81.02-7.81.02l.05,20.77-6.82.02-.05-20.77-7.75.02v-5.7s22.37-.06,22.37-.06Z"/>
  <path class="st1" d="M216.04,162.77l-10.27-14.38c-.1-.14-.33-.08-.34.09l-1.4,18.93c.03,4.58,4.56,8.08,9.38,6.31,2.02-.74,3.53-2.5,4.04-4.6.4-1.65.22-3.01-.27-4.3-.28-.73-.69-1.42-1.14-2.06Z"/>
</svg>